<?xml version="1.0" encoding="utf-8"?>
<!-- Generator: Adobe Illustrator 15.1.0, SVG Export Plug-In  -->
<!DOCTYPE svg PUBLIC "-//W3C//DTD SVG 1.1//EN" "http://www.w3.org/Graphics/SVG/1.1/DTD/svg11.dtd" [
	<!ENTITY ns_flows "http://ns.adobe.com/Flows/1.0/">
]>
<svg version="1.1"
	 xmlns="http://www.w3.org/2000/svg" xmlns:xlink="http://www.w3.org/1999/xlink" xmlns:a="http://ns.adobe.com/AdobeSVGViewerExtensions/3.0/"
	 x="0px" y="0px" width="242px" height="144px" viewBox="-20.028 -34.25 242 144" enable-background="new -20.028 -34.25 242 144"
	 xml:space="preserve">
<defs>
</defs>
<path fill="#FFFFFF" stroke="#000000" stroke-miterlimit="10" d="M42.453,84.151c0,0-9.938,1.63-21.304,1.63
	c-8.777,0-20.648-1.63-20.648-1.63V44.75h41.953V84.151z"/>
<path fill="#FFFFFF" stroke="#000000" stroke-miterlimit="10" d="M90.591,39.901c0,0-9.938,1.63-21.304,1.63
	c-8.777,0-20.648-1.63-20.648-1.63V0.5h41.953V39.901z"/>
<path fill="#FFFFFF" stroke="#000000" stroke-miterlimit="10" d="M90.591,84.151c0,0-9.938,1.63-21.304,1.63
	c-8.777,0-20.648-1.63-20.648-1.63V44.75h41.953V84.151z"/>
<line fill="none" stroke="#000000" stroke-miterlimit="10" x1="51.782" y1="81.791" x2="87.449" y2="48.74"/>
<line fill="none" stroke="#000000" stroke-miterlimit="10" x1="54.782" y1="15.793" x2="84.449" y2="15.793"/>
<line fill="none" stroke="#000000" stroke-miterlimit="10" x1="54.782" y1="26.238" x2="84.449" y2="26.238"/>
<line fill="none" stroke="#000000" stroke-miterlimit="10" x1="64.67" y1="5.349" x2="64.67" y2="36.682"/>
<line fill="none" stroke="#000000" stroke-miterlimit="10" x1="74.559" y1="5.349" x2="74.559" y2="36.682"/>
<path fill="#FFFFFF" stroke="#000000" stroke-miterlimit="10" d="M139.401,39.901c0,0-9.938,1.63-21.304,1.63
	c-8.777,0-20.648-1.63-20.648-1.63V0.5h41.953V39.901z"/>
<path fill="#FFFFFF" stroke="#000000" stroke-miterlimit="10" d="M139.402,84.151c0,0-9.938,1.63-21.304,1.63
	c-8.777,0-20.648-1.63-20.648-1.63V44.75h41.953V84.151z"/>
<path fill="#FFFFFF" stroke="#000000" stroke-miterlimit="10" d="M188.341,39.901c0,0-9.938,1.63-21.304,1.63
	c-8.777,0-20.648-1.63-20.648-1.63V0.5h41.953V39.901z"/>
<line fill="none" stroke="#000000" stroke-miterlimit="10" x1="149.532" y1="37.541" x2="185.199" y2="4.49"/>
<path fill="#FFFFFF" stroke="#000000" stroke-miterlimit="10" d="M188.341,84.151c0,0-9.938,1.63-21.304,1.63
	c-8.777,0-20.648-1.63-20.648-1.63V44.75h41.953V84.151z"/>
<line fill="none" stroke="#000000" stroke-miterlimit="10" x1="149.532" y1="81.791" x2="185.199" y2="48.74"/>
<line fill="none" stroke="#000000" stroke-miterlimit="10" x1="110.238" y1="51.063" x2="110.238" y2="77.938"/>
<rect x="110.238" y="53.375" stroke="#000000" stroke-miterlimit="10" width="17.359" height="11.125"/>
<line fill="none" stroke="#000000" stroke-miterlimit="10" x1="109.746" y1="5.875" x2="109.746" y2="32.75"/>
<rect x="109.746" y="8.188" fill="none" stroke="#000000" stroke-miterlimit="10" width="17.359" height="11.125"/>
<text transform="matrix(1 0 0 1 150.3892 18.083)" fill="none" stroke="#000000" font-family="'MyriadPro-Regular'" font-size="12">1:1</text>
<path fill="none" stroke="#000000" stroke-miterlimit="10" d="M184.347,33.187c0,2.313-1.922,4.187-4.294,4.187h-14.787
	c-2.371,0-4.294-1.875-4.294-4.187l0,0c0-2.313,1.923-4.187,4.294-4.187h15.812C183.45,29,184.347,30.875,184.347,33.187
	L184.347,33.187z"/>
<circle stroke="#000000" stroke-miterlimit="10" cx="172.723" cy="33.187" r="0.958"/>
<circle stroke="#000000" stroke-miterlimit="10" cx="176.641" cy="33.187" r="0.958"/>
<circle stroke="#000000" stroke-miterlimit="10" cx="180.558" cy="33.187" r="0.958"/>
<circle stroke="#000000" stroke-miterlimit="10" cx="168.806" cy="33.187" r="0.958"/>
<circle stroke="#000000" stroke-miterlimit="10" cx="164.889" cy="33.187" r="0.958"/>
<polygon fill="none" stroke="#000000" stroke-miterlimit="10" points="64.676,65.266 51.782,57.821 64.676,50.376 "/>
<polygon fill="none" stroke="#000000" stroke-miterlimit="10" points="154.525,49.611 167.419,57.056 154.525,64.5 "/>
<rect x="69.736" y="68.797" fill="none" stroke="#000000" stroke-width="0.5" stroke-miterlimit="10" width="16.857" height="10.875"/>
<rect x="71.477" y="70.453" fill="none" stroke="#000000" stroke-width="0.5" stroke-miterlimit="10" width="13.375" height="7.563"/>
<rect x="172.764" y="67.609" fill="none" stroke="#000000" stroke-width="0.5" stroke-miterlimit="10" width="9.751" height="9.25"/>
<rect x="166.931" y="71.5" fill="#FFFFFF" stroke="#000000" stroke-width="0.5" stroke-miterlimit="10" width="9.751" height="9.25"/>
</svg>
